<?xml version="1.0" encoding="UTF-8"?>
<svg xmlns="http://www.w3.org/2000/svg" version="1.1" viewBox="0 0 997.98 1336.78">
  <defs>
    <style>
      .cls-1 {
        fill: #f7941d;
      }
    </style>
  </defs>
  <!-- Generator: Adobe Illustrator 28.6.0, SVG Export Plug-In . SVG Version: 1.2.0 Build 709)  -->
  <g>
    <g id="Layer_1">
      <g>
        <path class="cls-1" d="M484.91,652.61c8.93,8.35,22.81,8.31,31.7-.09l304.87-288.06c11.33-10.71,3.75-29.76-11.84-29.76h-143.48V24.65c0-13.61-11.04-24.65-24.65-24.65h-281.51c-13.61,0-24.65,11.04-24.65,24.65v310.05h-147.01c-15.64,0-23.19,19.15-11.77,29.83l308.34,288.08Z"/>
        <path class="cls-1" d="M980.07,577.17l-165.01-84.85-88.86,83.35,143.68,74.32-370.88,184.17-370.88-184.17,143.68-74.32-88.86-83.35-165.01,84.85c-11,5.65-17.91,16.98-17.91,29.34v461.63c0,12.44,7,23.83,18.11,29.44l465.99,235.64c9.36,4.73,20.42,4.73,29.78,0l465.99-235.64c11.1-5.62,18.11-17,18.11-29.44v-461.63c0-12.36-6.91-23.69-17.91-29.34ZM914.9,1042.57c0,10.37-5.84,19.86-15.09,24.54l-388.41,196.41c-7.8,3.95-17.02,3.95-24.82,0l-388.41-196.41c-9.26-4.68-15.09-14.17-15.09-24.54v-299.31c0-15.99,16.75-26.46,31.12-19.44,100.42,49.04,314.42,155.65,370.89,183.8,8.75,4.36,19.03,4.32,27.74-.1,56.75-28.79,273.25-138.36,371.2-184.6,14.35-6.78,30.87,3.69,30.87,19.56v300.09Z"/>
      </g>
    </g>
  </g>
</svg>